<svg xmlns="http://www.w3.org/2000/svg" id="b" viewBox="0 0 1574.639 269.733"><defs><style>.d{fill:#2b2f72}.e{fill:#45499e}</style></defs><g id="c"><path d="m454.555 69.507-113.102-.676v31.194l99.243 1.014-.004 58.324h-97.54l-.68 40.01h118.167l-.876 65.78H268.042L268.369 0h188.578l-2.393 69.507ZM82.625 0l44.383 168.184L173.725 0h83.08l-88.869 265.153H85.115L0 0h82.625Z" class="e"/><path d="M1036.805.006c.795 72.016 1.318 125.867-.026 154.981-.339 7.335-1.366 25.461 10.129 36.849 7.329 7.261 16.851 8.911 20.807 9.596 1.904.33 22.484 3.558 35.537-8.586 7.094-6.6 10.751-17.023 11.081-31.755.923-41.183-.348-149.943-.31-161.091h76.254l.181 167.868c-2.415 50.672-23.642 85.298-74.791 96.953-73.216 16.684-155.285-7.723-155.012-94.919L960.754 0l76.052.006ZM956.589 265.13l-79.813.023-52.388-174.278-54.618 174.278h-80.01L783.477 0h82.365l90.746 265.13ZM547.07 0l44.869 167.507L638.161 0h83.034l-87.512 264.085-2.29 1.106-79.915-.367L465.843 0h81.227ZM1431.732 69.848h-64.914L1365.86 0h208.778l-.091 70.052-67.367.135v193.948l-73.747 1.016-1.703-195.303ZM1397.745 195.304v69.848h-173.33l-.013-265.153h73.763l2.032 195.311 97.547-.007Z" class="d"/></g></svg>